<?xml version="1.0" standalone="no"?>
<!DOCTYPE svg PUBLIC "-//W3C//DTD SVG 20010904//EN"
 "http://www.w3.org/TR/2001/REC-SVG-20010904/DTD/svg10.dtd">
<svg version="1.0" xmlns="http://www.w3.org/2000/svg"
 width="1130.000000pt" height="1024.000000pt" viewBox="0 0 1130.000000 1024.000000"
 preserveAspectRatio="xMidYMid meet">
<metadata>
Created by potrace 1.16, written by Peter Selinger 2001-2019
</metadata>
<g transform="translate(0.000000,1024.000000) scale(0.100000,-0.100000)"
fill="#000000" stroke="none">
<path d="M6437 9480 c-646 -50 -1240 -322 -1691 -774 -151 -151 -290 -329
-391 -501 -9 -15 -21 -11 -120 38 -131 65 -259 109 -409 140 -95 19 -141 22
-326 21 -184 0 -230 -3 -320 -23 -601 -128 -1076 -547 -1265 -1115 -62 -184
-78 -289 -79 -496 -1 -102 3 -219 7 -260 l9 -76 -90 -53 c-435 -257 -772 -696
-922 -1201 -155 -525 -97 -1105 161 -1588 276 -519 777 -913 1337 -1052 233
-58 285 -62 821 -67 529 -5 544 -4 601 43 43 37 60 75 60 135 0 63 -27 115
-77 149 l-36 25 -526 6 c-565 6 -593 9 -789 65 -430 124 -795 403 -1028 784
-367 604 -330 1383 93 1949 122 164 312 337 478 436 192 116 214 135 254 226
31 70 34 124 15 229 -22 122 -22 316 -1 436 114 635 664 1097 1307 1097 218 0
396 -43 580 -141 58 -30 130 -68 160 -84 50 -27 62 -29 136 -26 69 3 88 7 130
33 51 31 54 36 201 267 211 331 523 605 898 789 302 148 597 223 925 236 1155
44 2170 -800 2347 -1952 17 -113 22 -359 13 -620 -5 -127 -4 -131 23 -187 39
-80 95 -125 225 -181 205 -89 371 -202 530 -359 275 -272 434 -581 504 -978
19 -112 16 -441 -5 -557 -69 -371 -238 -693 -499 -951 -217 -215 -469 -362
-763 -447 -190 -55 -231 -58 -790 -64 -368 -4 -526 -9 -540 -18 -26 -14 -69
-62 -84 -90 -15 -30 -14 -107 3 -146 18 -43 67 -84 119 -98 69 -18 994 -6
1127 15 459 74 841 263 1164 575 415 402 640 932 640 1511 0 355 -68 649 -221
955 -108 215 -233 385 -415 560 -181 175 -341 287 -551 385 l-119 55 6 45 c24
181 16 470 -20 690 -71 434 -270 879 -550 1230 -88 110 -295 317 -404 404
-325 258 -717 444 -1112 526 -218 45 -521 66 -731 50z"/>
<path d="M5520 5978 c-51 -19 -115 -80 -864 -827 -555 -553 -814 -819 -827
-846 -57 -123 27 -255 162 -255 22 0 54 7 72 16 18 9 344 327 725 707 l692
692 0 -2305 0 -2305 23 -40 c60 -107 227 -114 299 -13 l23 33 5 2313 5 2312
685 -686 c379 -379 702 -694 722 -705 69 -35 156 -20 210 37 51 55 62 128 29
199 -13 27 -272 293 -827 846 -770 768 -812 808 -867 828 -77 28 -191 28 -267
-1z"/>
</g>
</svg>
